<?xml version="1.0" encoding="utf-8"?>
<!DOCTYPE svg PUBLIC "-//W3C//DTD SVG 1.1//EN" "http://www.w3.org/Graphics/SVG/1.1/DTD/svg11.dtd">
<svg version="1.1" id="Layer_1" xmlns="http://www.w3.org/2000/svg" xmlns:xlink="http://www.w3.org/1999/xlink" x="0px" y="0px"
     width="500px" height="250px" viewBox="0 0 500 250" enable-background="new 0 0 500 250" xml:space="preserve">
<g>
    <polygon fill-rule="evenodd" clip-rule="evenodd" points="2.667,106.621 34.5,125 2.667,143.379   "/>
    <path fill="#FFFFFF" d="M5.167,110.951L29.5,125L5.167,139.049V110.951 M0.167,102.291v8.66v28.098v8.66l7.5-4.33L32,129.33
        l7.5-4.33l-7.5-4.33L7.667,106.621L0.167,102.291L0.167,102.291z"/>
</g>
<g>
    <polygon fill-rule="evenodd" clip-rule="evenodd" points="465.667,125.001 497.501,106.622 497.501,143.38     "/>
    <path fill="#FFFFFF" d="M495.001,110.952v28.098l-24.334-14.049L495.001,110.952 M500.001,102.292l-7.5,4.33l-24.334,14.049
        l-7.5,4.33l7.5,4.33l24.334,14.049l7.5,4.33v-8.66v-28.098V102.292L500.001,102.292z"/>
</g>
</svg>
