<svg xmlns="http://www.w3.org/2000/svg" id="SvgjsSvg438255" width="4096" height="2686.0657207339336" version="1.1" xmlns:xlink="http://www.w3.org/1999/xlink" xmlns:svgjs="http://svgjs.com/svgjs"><defs id="SvgjsDefs438256"></defs><g id="SvgjsG438257" transform="translate(328, 328.0000000000001) scale(34.4)" opacity="1"><defs id="SvgjsDefs102923"><linearGradient id="SvgjsLinearGradientfJSP31B7c" gradientUnits="userSpaceOnUse" x1="-2.1864237886466706" y1="96.18642378864669" x2="90.18642378864669" y2="3.8135762113533174"><stop id="SvgjsStop102926" stop-color="#bbff29" offset="0"></stop><stop id="SvgjsStop102927" stop-color="#5f9b00" offset="1"></stop></linearGradient><linearGradient id="SvgjsLinearGradientvCu5WbL3rc" gradientUnits="userSpaceOnUse" x1="14.127228960728816" y1="99.2970269568407" x2="80.926365649163" y2="3.8979730431593014"><stop id="SvgjsStop102930" stop-color="#bbff29" offset="0"></stop><stop id="SvgjsStop102931" stop-color="#000d1a" offset="0.587"></stop></linearGradient></defs><g id="SvgjsG102924" transform="scale(0.20066621329787213)" opacity="1"><g id="SvgjsG102928" class="v5mhmWGFD" transform="translate(162.43017455223577, -1.8326762195527073) scale(1.9745502413339182)" light-content="false" fill="url(#SvgjsLinearGradientfJSP31B7c)"><path d="M47 1.732l37.301 21.536a6 6 0 0 1 3 5.196v43.072a6 6 0 0 1-3 5.196L47 98.268a6 6 0 0 1-6 0L3.699 76.732a6 6 0 0 1-3-5.196V28.464a6 6 0 0 1 3-5.196L41 1.732a6 6 0 0 1 6 0z"></path></g><g id="SvgjsG102932" class="rHq0b2GUIR" transform="translate(199.02102870787303, 42.29816160769351) scale(1.0581263479713112)" light-content="true" fill="url(#SvgjsLinearGradientvCu5WbL3rc)"><path d="M27.211 90.92L6.577 44.088l11.267-4.964L38.48 85.956zM16.79 69.582c-1.462.954-3.02 1.242-5.635 3.182-2.201 1.635-4.231 4.628-4.336 6.6-.034.619.6 1.791.999 2.266.787.937 2.719 1.81 4.135 2.612 2.005 1.14 4.123.776 5.204-1.25.867-1.624 1.24-3.552 1.36-5.405.161-2.506-1.211-7.423-1.336-8.289l-.391.284zm-4.94 11.692c-2.634-1.309 2.844-7.392 5.024-10.653-.901 3.973-2.384 11.96-5.024 10.653zm5.067-11.98c-.261-.584-5.358-9.028-7.045-10.221-2.379-1.68-4.699-.835-5.953 1.803a56.584 56.584 0 0 0-1.254 2.83c-1.191 2.875-.255 5.366 2.752 6.044 2.456.551 11.5-.456 11.5-.456zM5.006 62.779c1.44-2.567 7.235 3.214 10.384 5.561-3.924-1.103-11.822-2.99-10.384-5.561zm56.227-10.693c-6.311.068-6.596-.409-3.497-5.91-3.097 5.5-3.655 5.506-6.87.076 3.215 5.43 2.943 5.915-3.367 5.986 5.139-.058 6.28.251 4.855 3.339h-13.04V89.5H84.7V55.577H56.476c-1.524-3.095-.406-3.433 4.757-3.491zm-4.942 3.491h-3.745c1.425-2.085 2.266-2.083 3.745 0zM30.334 44.358c7.486-2.068 7.974-1.588 6.022 5.925 1.951-7.515 2.61-7.695 8.144-2.25-5.533-5.446-5.36-6.108 2.125-8.175-7.485 2.067-7.974 1.585-6.022-5.929-1.951 7.514-2.608 7.696-8.144 2.252 5.535 5.445 5.361 6.109-2.125 8.177zm44.035-16.804c4.348-4.163 4.857-4.015 6.288 1.831-1.431-5.845-1.048-6.213 4.731-4.528-5.78-1.684-5.905-2.2-1.559-6.363-4.347 4.163-4.859 4.015-6.287-1.832 1.43 5.846 1.047 6.213-4.732 4.532 5.78 1.68 5.907 2.197 1.559 6.36zm-28.475 1.59c7.786 2.263 7.957 2.959 2.1 8.568 5.857-5.609 6.544-5.41 8.472 2.467-1.928-7.875-1.412-8.37 6.374-6.101-7.787-2.269-7.956-2.964-2.1-8.572-5.856 5.608-6.547 5.409-8.471-2.468 1.926 7.876 1.411 8.37-6.375 6.106zm41.842 19.92c-5.78-1.684-5.905-2.2-1.559-6.364-4.347 4.164-4.858 4.014-6.287-1.832 1.43 5.846 1.047 6.213-4.732 4.533 5.78 1.68 5.907 2.197 1.559 6.36 4.349-4.163 4.857-4.016 6.289 1.83-1.432-5.843-1.049-6.213 4.73-4.527zM66.178 33.458c3.691 1.166 4.111 1.973 2.947 5.665 1.165-3.694 1.976-4.112 5.665-2.945-3.69-1.167-4.109-1.978-2.945-5.666-1.164 3.69-1.976 4.113-5.667 2.946z"></path><path d="M72.754 51.831c-2.818-2.532-2.867-3.424-.334-6.242-2.533 2.819-3.424 2.865-6.242.333 2.818 2.531 2.865 3.422.334 6.242 2.531-2.82 3.424-2.865 6.242-.333zm9.324-17.664c3.693 1.166 4.111 1.973 2.945 5.668 1.166-3.693 1.977-4.111 5.668-2.945-3.691-1.166-4.113-1.977-2.947-5.667-1.166 3.69-1.976 4.11-5.666 2.944zM35.881 53.991c-1.141 3.615-1.934 4.025-5.547 2.885 3.613 1.141 4.024 1.932 2.885 5.545 1.14-3.613 1.933-4.023 5.547-2.883-3.614-1.141-4.025-1.932-2.885-5.547zm54.567-2.629c-.966 3.059-1.637 3.408-4.694 2.44 3.058.966 3.406 1.637 2.442 4.695.964-3.06 1.635-3.407 4.694-2.44-3.059-.964-3.408-1.636-2.442-4.695zM69.386 23.023c-4.537-4.604-4.526-6.127.08-10.666-4.606 4.539-6.131 4.525-10.669-.082 4.538 4.607 4.525 6.133-.079 10.674 4.604-4.541 6.131-4.527 10.668.074zm-20.437 0c-3.493-3.543-3.483-4.717.062-8.211-3.545 3.494-4.72 3.484-8.213-.063 3.493 3.546 3.483 4.719-.06 8.216 3.544-3.496 4.72-3.485 8.211.058z"></path></g><g id="SvgjsG102933" class="text" transform="translate(247.5, 292.7680656790219) scale(1)" light-content="false" fill="#bbff29"><path d="M-247.5 -55L-247.5 0L-215.91 0L-215.91 -10.82L-234.39 -10.82L-234.39 -55Z M-165.31 -55L-179.04 -55L-188.1 -32.03L-197.25 -55L-210.98 -55L-194.7 -18.3L-194.7 0L-181.59 0L-181.59 -18.3Z M-105.12 0L-118.67 -28.25L-105.56 -55L-119.72 -55L-125.97 -42.33C-127.85 -38.46 -128.79 -35.41 -128.79 -33.18L-136.62 -33.18L-136.62 -55L-149.73 -55L-149.73 0L-136.62 0L-136.62 -23.32L-128.79 -23.32C-128.79 -21.09 -127.85 -18.04 -125.97 -14.17L-119.28 0Z M-44.84 0L-58.39 -28.25L-45.28 -55L-59.44 -55L-65.69 -42.33C-67.57 -38.46 -68.51 -35.41 -68.51 -33.18L-76.34 -33.18L-76.34 -55L-89.45 -55L-89.45 0L-76.34 0L-76.34 -23.32L-68.51 -23.32C-68.51 -21.09 -67.57 -18.04 -65.69 -14.17L-59 0Z M-16.06 -10.82L-16.06 -22.62L3.21 -22.62L3.21 -32.38L-16.06 -32.38L-16.06 -44.18L4.88 -44.18L6.47 -55L-29.17 -55L-29.17 0L6.38 0L6.38 -10.82Z M65.16 -23.23C63.64 -25.46 61.59 -26.96 59 -27.72L59 -28.25C60.88 -29.42 62.3 -31.09 63.27 -33.26C64.24 -35.43 64.72 -37.99 64.72 -40.92C64.72 -45.79 63.4 -49.35 60.76 -51.61C58.12 -53.87 53.93 -55 48.18 -55L25.12 -55L25.12 0L51.08 0C56.36 0 60.41 -1.33 63.23 -4C66.04 -6.67 67.45 -10.5 67.45 -15.49C67.45 -18.42 66.69 -21 65.16 -23.23ZM50.56 -44.09C51.32 -43.15 51.7 -41.42 51.7 -38.9C51.7 -36.43 51.3 -34.73 50.51 -33.79C49.72 -32.85 48.3 -32.38 46.24 -32.38L38.32 -32.38L38.32 -45.5L46.33 -45.5C48.39 -45.5 49.79 -45.03 50.56 -44.09ZM52.89 -11.13C52.04 -10.05 50.59 -9.5 48.53 -9.5L38.32 -9.5L38.32 -23.23L48.62 -23.23C50.67 -23.23 52.11 -22.73 52.93 -21.74C53.75 -20.74 54.16 -19.04 54.16 -16.63C54.16 -14.05 53.74 -12.22 52.89 -11.13Z M85.76 -45.28C84.35 -41.2 83.64 -35.26 83.64 -27.46C83.64 -19.65 84.35 -13.73 85.76 -9.68C87.16 -5.63 89.57 -2.79 92.97 -1.14C96.37 0.5 101.36 1.32 107.93 1.32C114.5 1.32 119.49 0.5 122.89 -1.14C126.29 -2.79 128.7 -5.63 130.11 -9.68C131.52 -13.73 132.22 -19.65 132.22 -27.46C132.22 -35.26 131.52 -41.2 130.11 -45.28C128.7 -49.35 126.29 -52.21 122.89 -53.86C119.49 -55.5 114.5 -56.32 107.93 -56.32C101.36 -56.32 96.37 -55.5 92.97 -53.86C89.57 -52.21 87.16 -49.35 85.76 -45.28ZM110.92 -9.86L97.72 -9.86L97.72 -39.6C97.72 -41.65 98.25 -43.09 99.31 -43.91C100.36 -44.73 102.24 -45.14 104.94 -45.14L118.14 -45.14L118.14 -15.4C118.14 -13.35 117.61 -11.91 116.56 -11.09C115.5 -10.27 113.62 -9.86 110.92 -9.86Z M196.02 0L182.47 -28.25L195.58 -55L181.41 -55L175.16 -42.33C173.29 -38.46 172.35 -35.41 172.35 -33.18L164.52 -33.18L164.52 -55L151.4 -55L151.4 0L164.52 0L164.52 -23.32L172.35 -23.32C172.35 -21.09 173.29 -18.04 175.16 -14.17L181.85 0Z M228.14 -9.68C221.98 -9.68 216.11 -10.5 210.54 -12.14L208.69 -1.32C214.79 0.44 221.57 1.32 229.02 1.32C234.3 1.32 238.52 0.73 241.69 -0.44C244.86 -1.61 247.18 -3.48 248.64 -6.03C250.11 -8.58 250.84 -11.97 250.84 -16.19C250.84 -20.06 250.23 -23.19 249 -25.56C247.76 -27.94 245.75 -29.74 242.97 -30.98C240.18 -32.21 236.41 -33.03 231.66 -33.44L223.56 -34.06L223.56 -44.79C225.56 -45.09 228.05 -45.23 231.04 -45.23C233.8 -45.23 236.32 -45.13 238.61 -44.92C240.9 -44.72 243.45 -44.32 246.27 -43.74L247.94 -54.21C241.6 -55.62 235.18 -56.32 228.67 -56.32C223.86 -56.32 220.07 -55.72 217.32 -54.52C214.56 -53.31 212.55 -51.39 211.29 -48.75C210.03 -46.11 209.4 -42.5 209.4 -37.93C209.4 -34.06 209.98 -31.02 211.16 -28.82C212.33 -26.62 214.28 -24.96 217.01 -23.85C219.74 -22.73 223.59 -21.97 228.58 -21.56L236.68 -20.86L236.68 -10.21C233.98 -9.86 231.13 -9.68 228.14 -9.68Z"></path></g></g></g></svg>